<svg id="Layer_1" data-name="Layer 1" xmlns="http://www.w3.org/2000/svg" xmlns:xlink="http://www.w3.org/1999/xlink" viewBox="0 0 1000 700"><defs><linearGradient id="linear-gradient" x1="100.57" y1="156.51" x2="816.24" y2="156.51" gradientUnits="userSpaceOnUse"><stop offset="0" stop-color="#e85d04"/><stop offset="1" stop-color="#dc2f02"/></linearGradient><linearGradient id="linear-gradient-2" x1="100.57" y1="304.98" x2="816.24" y2="304.98" xlink:href="#linear-gradient"/><linearGradient id="linear-gradient-3" x1="100.57" y1="92.01" x2="816.25" y2="92.01" xlink:href="#linear-gradient"/><linearGradient id="linear-gradient-4" x1="100.57" y1="227.28" x2="816.3" y2="227.28" xlink:href="#linear-gradient"/><linearGradient id="linear-gradient-5" x1="100.57" y1="379.71" x2="816.24" y2="379.71" xlink:href="#linear-gradient"/><linearGradient id="linear-gradient-6" x1="100.57" y1="171.12" x2="816.24" y2="171.12" xlink:href="#linear-gradient"/><linearGradient id="linear-gradient-7" x1="100.58" y1="367.78" x2="816.24" y2="367.78" xlink:href="#linear-gradient"/><linearGradient id="linear-gradient-8" x1="100.57" y1="525.94" x2="816.25" y2="525.94" xlink:href="#linear-gradient"/><linearGradient id="linear-gradient-9" x1="100.57" y1="520.01" x2="816.24" y2="520.01" xlink:href="#linear-gradient"/><linearGradient id="linear-gradient-10" x1="100.58" y1="341.21" x2="816.24" y2="341.21" xlink:href="#linear-gradient"/><linearGradient id="linear-gradient-11" x1="100.56" y1="450.99" x2="816.25" y2="450.99" xlink:href="#linear-gradient"/><linearGradient id="linear-gradient-12" x1="100.57" y1="494.44" x2="816.25" y2="494.44" xlink:href="#linear-gradient"/><linearGradient id="linear-gradient-13" x1="100.57" y1="484.5" x2="816.24" y2="484.5" xlink:href="#linear-gradient"/><linearGradient id="linear-gradient-14" x1="100.57" y1="426.8" x2="816.24" y2="426.8" xlink:href="#linear-gradient"/><linearGradient id="linear-gradient-15" x1="100.57" y1="118.27" x2="816.24" y2="118.27" xlink:href="#linear-gradient"/></defs><path d="M218.63,138.25c9.2,11.87,17,25,29.89,33.42,12.55,8.19,26.08,14.4,39.87,21.15.22-2.37-1.12-3.39-2-4.51-8.07-10.13-16-20.38-21.46-32.22-10.23-22.05-13.36-45-8.87-68.95a108,108,0,0,1,16.59-40.4,83.38,83.38,0,0,1,26.18-24.57,89.48,89.48,0,0,1,15.64-8.09c-.74,3.25-2.64,5.17-4.36,7.1-8.28,9.26-15.65,19.1-20.46,30.67-11.7,28.22-8.74,55.24,6.29,81.43,12.24,21.33,30.54,36.3,50.68,49.5,13.23,8.66,26.46,17.37,37.07,29.35a75.68,75.68,0,0,1,15.08,27.38,6.68,6.68,0,0,1,.41,1.67c.11,2.07,1.61,4.91-.57,5.94s-3.19-2-4.24-3.44c-9.34-13.17-22.13-22-36.24-29.2-11.79-6-23.67-11.83-35.52-17.69a6.66,6.66,0,0,0-5.65-.77c21.05,19.15,43.6,36.25,51.89,66.15-13.93-12.68-28-23.37-44.51-30.13a288.7,288.7,0,0,0-50.62-15.78c18.63,20.09,39.15,37.58,62.72,51.42s49.35,21.35,75,30c-6.38.44-12.76,1.24-19.14,1.27-14.95.05-29.83-.38-44.51-4.11-20.3-5.17-38.19-14.95-54.8-27.34-15.16-11.31-28.79-24.2-40.11-39.48a180.06,180.06,0,0,1-27-51.74C222.17,165,220,153.46,218,141.84,217.86,140.77,217.25,139.61,218.63,138.25Z" style="fill-rule:evenodd;fill:url(#linear-gradient)"/><path d="M395.51,304.24c-24,8.74-48.06,7.14-72.48,6.5a7.24,7.24,0,0,0,3.57,3.49c21.08,12.56,43.71,19.6,68.44,19.06,5.46-.12,10.92-.16,16.37-.21,1,0,2.22-.44,2.75.66s-.71,1.76-1.4,2.34c-13.4,11.23-27.88,20.32-45.65,22.85-4.94.7-9.86,1.56-15.42,2.45,17.74,16.3,37.26,25.88,61.69,22.82C407,387,400.5,388.44,394,389.9c-25.54,5.72-45.41-5.21-63.18-21.77-8.85-8.25-16.14-17.94-23.59-27.46a2.27,2.27,0,0,1-.61-2.49c22.14,2.55,44.27,9.26,66.86,2.78-7.53-.57-15.05-1.06-22.55-1.89-25.26-2.79-46.38-14.49-65.65-30.21a222.75,222.75,0,0,1-35.38-35.81c-12.56-16.14-21.69-34.17-29.21-53.09a5.16,5.16,0,0,1-.12-1.44c2,.12,2.61,1.79,3.56,2.86,13.58,15.26,27.06,30.67,44.07,42.29,31.32,21.4,65.09,36.59,103.43,39.72a110,110,0,0,0,18.95,0A6.58,6.58,0,0,1,395.51,304.24Z" style="fill-rule:evenodd;fill:url(#linear-gradient-2)"/><path d="M318.87,34.94c-18.53,40.41-14.27,78.32,11.74,114.13-21.93-12.6-34.12-31.75-36-56.58C292.91,69.62,301.81,50.4,318.87,34.94Z" style="fill-rule:evenodd;fill:url(#linear-gradient-3)"/><path d="M755.93,253.61c-13,7.57-25,16.84-40.2,19.85-14.7,2.92-29.57,3.63-44.88,4.76.68-2.29,2.31-2.73,3.56-3.43,11.26-6.39,22.41-13,31.93-21.89,17.7-16.65,29.16-36.75,33.94-60.68a108.29,108.29,0,0,0-.33-43.67A83.34,83.34,0,0,0,724.81,116a88.5,88.5,0,0,0-11.49-13.33c-.52,3.29.53,5.78,1.41,8.21,4.21,11.68,7.39,23.56,7.53,36.09.34,30.54-12.48,54.51-36.19,73.21-19.31,15.22-41.88,22.29-65.49,27-15.5,3.11-31,6.25-45.34,13.41A75.69,75.69,0,0,0,551,280.39a7.16,7.16,0,0,0-1,1.4c-.87,1.87-3.32,3.95-1.68,5.73s3.69-.65,5.21-1.63c13.58-8.73,28.75-12.18,44.53-13.57,13.17-1.17,26.36-2.15,39.55-3.17a6.66,6.66,0,0,1,5.53,1.39c-26.67,9.92-54,17.38-72.82,42C588,306,605,301.32,622.88,301.21a289.5,289.5,0,0,1,52.86,4.24c-24.78,11.69-50.34,20.27-77.37,24.32s-53.76,1.41-80.74-.12c5.76,2.79,11.37,5.91,17.28,8.32,13.85,5.63,27.83,10.78,42.83,12.78,20.77,2.77,41,.37,61-4.93,18.29-4.84,35.74-11.72,51.94-21.67a180.31,180.31,0,0,0,44.34-37.95c7.59-9.07,13.92-19,20.07-29.05C755.7,256.22,756.7,255.38,755.93,253.61Z" style="fill-rule:evenodd;fill:url(#linear-gradient-4)"/><path d="M529.9,341.67c19,17,41.93,24.54,64.84,33.05a7.25,7.25,0,0,1-4.62,1.91c-24.24,3.79-47.86,1.89-70.61-7.84-5-2.14-10.07-4.22-15.11-6.3-.89-.37-1.9-1.23-2.79-.41s0,1.9.41,2.69c8.26,15.42,18.3,29.25,33.85,38.23,4.32,2.49,8.56,5.12,13.39,8-22.54,8.51-44.23,10.12-65.75-1.83,4.89,4.94,10.37,8.73,15.86,12.51,21.56,14.83,44.07,12.1,66.74,3.36,11.28-4.36,21.67-10.62,32.12-16.68a2.29,2.29,0,0,0,1.5-2.08c-21.5-5.89-44.53-7.92-63.07-22.35,7.19,2.27,14.36,4.62,21.62,6.65,24.48,6.83,48.44,3.86,72.19-3.54a223.39,223.39,0,0,0,46.18-20c17.67-10.29,32.87-23.63,46.9-38.37a5.21,5.21,0,0,0,.64-1.3c-1.91-.63-3.09.69-4.36,1.33-18.3,9.1-36.55,18.37-56.67,22.81-37,8.17-74,9.67-110.78-1.71a110.52,110.52,0,0,1-17.58-7.06A6.55,6.55,0,0,0,529.9,341.67Z" style="fill-rule:evenodd;fill:url(#linear-gradient-5)"/><path d="M701.44,120.36c2.13,44.41-16,78-53.45,101.52,25-3.51,43.5-16.73,54.49-39.08C712.6,162.23,711.5,141.07,701.44,120.36Z" style="fill-rule:evenodd;fill:url(#linear-gradient-6)"/><path d="M488,438.45,476,404.24l8.11-5.95h0c-16.52-30,20.14-43,23.59-63.11s27.18,2.79,35.79-16.33,27.85-41.37,27.85-41.37L560.07,271c-21.89,11.75-15.3,42.51-38.52,47.22-22.92.32-16-39.55-15.39-45.51,7.85,7.22,17.58,1.57,17.58,1.57-27.62-7.23-9.73-23.23-34.84-47,13.5,5.12,30.76,1.48,30.76,1.48-22.29-1.88-49.28-36.1-60.17-21-28.88-12.14-40.9,3.14-40.9,3.14,9.73.62,45.51,7.11,46.14,31.81s-10.67,33.9-17.16,40.18c0,0,12.14-5.23,16.32-10.26-1.05,43.11-79,93.76-22.22,162.82l4-10.05c7.95,9.63,50.22,69.48,27.2,107.15C472.89,532.52,510.14,486.08,488,438.45Z" style="fill-rule:evenodd;fill:url(#linear-gradient-7)"/><path d="M475.87,357.28c-26.09,147.08,126.09,165.5,64,337.33,0,0,76.44-90.05,15.08-166.84,0,0,34.61,47.24,121.55,44.3C640.33,557,524.11,512.2,475.87,357.28Z" style="fill:url(#linear-gradient-8)"/><path d="M467.81,413c-14.18,94.7,74.64,119,33.17,214C567.17,546.48,467,485.75,467.81,413Z" style="fill:url(#linear-gradient-9)"/><path d="M480.66,377.46s11.06-19,26.45-22.82,34-6.09,44-49.67l-7.26,2.58s-16.64,17.27-36.41,13.81-31.7,9.42-39.24,14.13-16.32,5.23-18.2,16.43S480.66,377.46,480.66,377.46Z" style="fill-rule:evenodd;fill:url(#linear-gradient-10)"/><path d="M541.9,479.19c32.76,6.64,72-14.48,72-14.48-63.2,1.26-102.75-30.56-102.75-30.56,23.44,8.52,56.18-9.59,56.18-9.59l-24.16-1.51a91.12,91.12,0,0,1-25.58-.94A39,39,0,0,0,493,425.69h-9.47l7,12.43,27.16,32.64Z" style="fill-rule:evenodd;fill:url(#linear-gradient-11)"/><path d="M523.61,467.84s64,46.87,115,41.43c0,0-27.23,26-82,.7Z" style="fill-rule:evenodd;fill:url(#linear-gradient-12)"/><path d="M539.4,636.45l-5.33.66c-3.48.38-8.55,1.15-15.14,1.36-3.29.17-7,.43-10.92.38h-6.2c-2.15,0-4.37-.07-6.67-.23-4.58-.31-9.5-.43-14.63-1.09l-7.92-.92c-2.69-.4-5.43-.91-8.24-1.37-5.64-.84-11.4-2.27-17.42-3.57-3-.68-6-1.64-9.06-2.49l-4.62-1.33-4.63-1.55a244.89,244.89,0,0,1-38.05-16c-6.44-3.2-12.69-7-19-10.87l-9.34-6.12-9.11-6.67a271.78,271.78,0,0,1-33.93-30.74,254.66,254.66,0,0,1-28.11-36.17,266.19,266.19,0,0,1-20.78-39.11,260.46,260.46,0,0,1-13-39.2,246.33,246.33,0,0,1-6.14-36.33c-.39-2.81-.42-5.61-.64-8.32s-.36-5.25-.45-8.06c0-5.1,0-9.94,0-14.48.25-4.63.45-9,.75-12.93s.87-7.58,1.22-10.85c.64-6.53,1.89-11.57,2.48-15l1.06-5.27s0,1.87-.05,5.38-.26,8.61,0,15.11c.13,3.23.05,6.83.38,10.7s.55,8.05.87,12.49c.55,4.51,1.12,9.32,1.72,14.38.86,4.73,1.54,10.11,2.6,15.44s2.19,11,3.82,16.66c.81,2.84,1.39,5.77,2.29,8.68s1.77,5.86,2.68,8.85a285.27,285.27,0,0,0,35.36,72.48,268.64,268.64,0,0,0,26.76,33.62,290.33,290.33,0,0,0,31.49,29.24,280.41,280.41,0,0,0,34.48,23.48A276.28,276.28,0,0,0,433.15,614a293.84,293.84,0,0,0,33.39,11.4c2.65.71,5.24,1.45,7.79,2.08l7.52,1.68c4.88,1.24,9.59,1.93,14,2.77s8.61,1.2,12.46,1.84,7.42.89,10.64,1.2c6.44.68,11.6.94,15.09,1.12Z" style="fill:url(#linear-gradient-13)"/><path d="M755.19,222.92l3.36,4.78c2.12,3.17,5.52,7.59,9,13.84.92,1.54,1.88,3.17,2.89,4.87s2.08,3.51,3,5.44c2,3.83,4.12,8,6.27,12.51,2,4.6,4.14,9.47,6.26,14.68q1.41,4,2.9,8.17c.93,2.8,2.08,5.62,2.85,8.62s1.71,6,2.59,9.12c.43,1.56.92,3.12,1.31,4.71s.71,3.22,1.07,4.86c.7,3.27,1.41,6.61,2.13,10s1,6.88,1.58,10.41q.39,2.64.78,5.33l.2,1.34.05.34,0,.49.06.66.25,2.66c.31,3.58.74,7.09.95,10.86s.32,7.64.48,11.51c0,3.84-.07,7.71-.1,11.61a261.68,261.68,0,0,1-5.83,47.82,263.25,263.25,0,0,1-38.77,91.27,262.06,262.06,0,0,1-64.32,66.73A238.47,238.47,0,0,1,660,606.39c-5.48,2.87-10.91,5.28-16.07,7.52-2.57,1.14-5.18,2-7.65,3s-4.87,1.94-7.27,2.68a238.37,238.37,0,0,1-24.83,7.13c-3.5.77-6.61,1.44-9.32,2l-7,1.11-5.77.87,5.54-1.85,6.64-2.18,8.85-3.29c6.6-2.49,14.46-5.86,23.29-10a305.68,305.68,0,0,0,28.59-15.78,281.85,281.85,0,0,0,61.77-52,285.69,285.69,0,0,0,27.44-36.1,279.47,279.47,0,0,0,36.43-85.69A284.13,284.13,0,0,0,787.63,379q.3-5.54.59-11,.07-5.37.15-10.64c0-3.53-.18-7.23-.25-10.77l-.08-2.67,0-.67v-.16c0-.2,0,.08,0,0l0-.32-.11-1.29c-.14-1.71-.28-3.42-.43-5.11-.3-3.38-.5-6.74-.87-10s-.91-6.5-1.35-9.68c-.21-1.59-.41-3.17-.61-4.73s-.58-3.08-.86-4.61q-.87-4.56-1.72-9c-1.17-5.85-2.83-11.33-4-16.66-1.48-5.25-3.07-10.19-4.46-14.87-1.57-4.62-3.28-8.86-4.66-12.88-.67-2-1.44-3.89-2.22-5.66s-1.47-3.49-2.16-5.11c-2.63-6.53-5.19-11.55-6.82-15Z" style="fill:url(#linear-gradient-14)"/><path d="M359,150.83l2.82-2.65c1.87-1.69,4.56-4.25,8.1-7.33,3.39-3.25,8.12-6.55,13.43-10.56,5.25-4.18,11.72-7.85,18.67-12.2,3.43-2.27,7.34-4,11.25-6,2-1,4-2,6-3l3.09-1.55,3.24-1.35,13.45-5.43a74.92,74.92,0,0,1,7.1-2.4L453.52,96c2.47-.73,4.94-1.59,7.47-2.23l7.73-1.72,7.82-1.73c1.32-.29,2.63-.58,4-.82l4-.56,8.09-1.1,4.06-.56,4.27-.53,8-.54,4-.27,4.19-.11,8.4-.13,8.25.24c5.49,0,10.94.74,16.34,1.12,5.38.71,10.74,1.23,16,2.27l7.78,1.43c2.57.51,5.09,1.18,7.6,1.76,5,1.11,9.89,2.59,14.64,4s9.31,3.07,13.73,4.69A240.54,240.54,0,0,1,634,112a221.5,221.5,0,0,1,19.28,11.15c2.75,1.85,5.35,3.51,7.67,5.17L667.2,133l2.68,2c.8.69,1.56,1.32,2.26,1.92l3.55,3,2.92,2.53-3.48-1.69c-2.27-1.1-5.51-2.85-9.76-4.8l-7-3.27-8.32-3.6c-2.93-1.33-6.17-2.5-9.51-3.85s-6.91-2.61-10.62-3.94c-7.41-2.67-15.56-5.13-24.2-7.53-4.36-1.07-8.8-2.25-13.39-3.26s-9.26-2.05-14.08-2.74c-9.57-1.81-19.57-2.78-29.71-3.73-5.09-.22-10.2-.68-15.35-.7l-7.73-.14-7.63.17-3.82.06-4,.23-8,.47-3.64.43-3.83.41-7.63.82-3.8.4c-1.25.18-2.49.45-3.73.65L472,108.14l-7.35,1.26c-2.41.5-4.78,1.11-7.16,1.66-4.71,1.18-9.43,2.11-13.94,3.41l-13.19,4q-1.6.5-3.21,1L424,120.55l-6,2.24c-4,1.49-7.91,2.7-11.46,4.39-7.16,3.22-14,5.8-19.63,8.86l-8.1,4c-1.26.63-2.49,1.17-3.63,1.8L372,143.67c-4,2.37-7.34,4.09-9.53,5.33Z" style="fill:url(#linear-gradient-15)"/></svg>